<svg xmlns="http://www.w3.org/2000/svg" viewBox="0 0 100 100"><defs><style>.cls-1,.cls-3{fill:none;}.cls-2,.cls-5{fill:#b1103c;}.cls-3,.cls-4,.cls-5{stroke:#000;}.cls-3,.cls-4,.cls-5,.cls-6{stroke-linecap:round;stroke-linejoin:round;stroke-width:0.5px;}.cls-6{fill:#fff;stroke:#fff;}</style></defs><g id="Capa_2" data-name="Capa 2"><g id="Capa_2-2" data-name="Capa 2"><rect class="cls-1" width="100" height="100"/><path class="cls-2" d="M33.52,0s-4.83,5.69-4.83,16.48S41.44,33.85,41.44,33.85V77.58l17.8,9.89V34.07l-13-1.76L66.05,20l9.18,2.25,7.91-2.41-6.37,5.93V80.71L46.27,100,26.71,88.79l-7,1.1,4.61-4.84V34.73S15.5,28.35,17,17.14,33.52,0,33.52,0Z"/><line class="cls-3" x1="38.73" y1="62.22" x2="39.42" y2="62.92"/><path class="cls-3" d="M38.71,52.73c.07,1.59-2.91,7.92-3,8.66s1.46,2,1.46,2"/><polygon class="cls-4" points="37.13 67.68 37.53 69.27 40.57 70.03 42.22 69.61 44.07 68.63 45.07 67.78 44.07 67.49 41.34 66.86 38.12 67.68 37.13 67.68"/><path class="cls-5" d="M37.17,68A1.42,1.42,0,0,0,38,69.82a5.62,5.62,0,0,0,2,.42,7.11,7.11,0,0,0,4.6-1.63,7.55,7.55,0,0,1,1.6-.94l-2.95.52a21.1,21.1,0,0,1-3,.25A7.91,7.91,0,0,1,37.17,68Z"/><path class="cls-5" d="M37,68.27a1,1,0,0,1-.56-.26.78.78,0,0,1-.24-.68c.09-.71,1-1,1.6-1a2.14,2.14,0,0,1,.83.11c.27.11.51.1.78.2s.53-.34,1.72-.28a5.49,5.49,0,0,1,2.17.49,6.48,6.48,0,0,0,2.89.81,32,32,0,0,1-3.61.45c-.86,0-1.7-.25-2.56-.29A5.38,5.38,0,0,0,38.1,68a5.54,5.54,0,0,1-.57.21A1.35,1.35,0,0,1,37,68.27Z"/><path class="cls-6" d="M37.13,53.31a3.18,3.18,0,0,1-2.63,1A7.48,7.48,0,0,1,31.3,53l2.92-.83Z"/><path class="cls-4" d="M37.64,53.57a3.45,3.45,0,0,0-3.23-1.7,24,24,0,0,0-4.11,1.06c1.07.44,2.88.26,4,.28S37.64,53.57,37.64,53.57Z"/><circle class="cls-4" cx="34.59" cy="53.15" r="1.28"/><path class="cls-6" d="M45.25,53.69A6.85,6.85,0,0,0,49,54.93,14.67,14.67,0,0,0,54,53.71s-3.38-1.25-5.61-1A6.5,6.5,0,0,0,45.25,53.69Z"/><path class="cls-4" d="M44.71,53.67s.14-.48,1.47-1a7.32,7.32,0,0,1,4.55-.31,12.32,12.32,0,0,1,1.2.45c1.52.61,2.94.42,4.58.54a9.5,9.5,0,0,1-2.94.79,9.85,9.85,0,0,1-2.17-.06c-.71-.09-1.39-.33-2.11-.42A15,15,0,0,0,44.71,53.67Z"/><circle class="cls-4" cx="48.32" cy="53.81" r="1.28"/><path class="cls-6" d="M45.25,58.64A6.85,6.85,0,0,0,49,59.88,14.67,14.67,0,0,0,54,58.66s-3.38-1.25-5.61-1A6.5,6.5,0,0,0,45.25,58.64Z"/><path class="cls-4" d="M44.71,58.62s.14-.48,1.47-1a7.32,7.32,0,0,1,4.55-.31,12.32,12.32,0,0,1,1.2.45c1.52.61,2.94.42,4.58.54a10.22,10.22,0,0,1-2.94.79A9.85,9.85,0,0,1,51.4,59c-.71-.1-1.39-.33-2.11-.42A15,15,0,0,0,44.71,58.62Z"/><circle class="cls-4" cx="48.32" cy="58.76" r="1.28"/><path class="cls-6" d="M45.25,64.12A6.76,6.76,0,0,0,49,65.36,14.51,14.51,0,0,0,54,64.15s-3.38-1.25-5.61-1A6.59,6.59,0,0,0,45.25,64.12Z"/><path class="cls-4" d="M44.71,64.11s.14-.48,1.47-1a7.32,7.32,0,0,1,4.55-.31,12.32,12.32,0,0,1,1.2.45c1.52.61,2.94.42,4.58.54a10.22,10.22,0,0,1-2.94.79,9.85,9.85,0,0,1-2.17-.06c-.71-.1-1.39-.33-2.11-.42A15,15,0,0,0,44.71,64.11Z"/><circle class="cls-4" cx="48.32" cy="64.25" r="1.28"/><path class="cls-3" d="M69.93,39.55c.08-2.16-1.18-4.89-2.13-6.77a17.66,17.66,0,0,0-4.23-5.54,22.21,22.21,0,0,0-12.77-5c-8.93-.5-15.8,6.21-18.66,14.15-.2.55-.39,1.1-.6,1.65C44.12,44,69.93,39.55,69.93,39.55Z"/><path class="cls-3" d="M69.93,42.78c.54,3.88.35,8.18-.76,9.95,5.27-.66.82,5.05.82,5.05l-3.7,4.85s-1.19,1.69-2.21,1.79-1.25-1-1.25-1L61.42,66s-1.21,1.84-1.9,2.71a16.34,16.34,0,0,1-5,4.43c-4.18,2.18-8.7,4.93-13.55,4.53a7.08,7.08,0,0,1-2.86-.77,5.86,5.86,0,0,1-2-2.57c-.55-1-1.08-1.9-1.58-2.87-1-1.93-2-3.9-2.84-5.89a13.18,13.18,0,0,1-1.37-7.24c.2-1.29.8-2.43,1.11-3.68.25-1-.26-1.85-.51-2.85a18,18,0,0,1-.62-3.65A18.53,18.53,0,0,1,31,41C38.46,46.1,69.93,42.78,69.93,42.78Z"/><path class="cls-3" d="M60.51,40.7a81.63,81.63,0,0,1,9.42,2.08"/><path class="cls-3" d="M31,41a27.46,27.46,0,0,1,6.29-1.1"/><path class="cls-3" d="M57.06,51.86a8.25,8.25,0,0,0-3.32-2.29c-2.27-.84-4.64-.25-7.14.43-.28.1-1.38.41-2.12.62"/><path class="cls-3" d="M30.3,49.3A10.42,10.42,0,0,1,31.77,49a21.21,21.21,0,0,1,6.69,1.22"/></g></g></svg>